<?xml version="1.0" encoding="utf-8"?>
<svg version="1.1" id="Layer_1" xmlns="http://www.w3.org/2000/svg" width="45px" height="45px" xmlns:xlink="http://www.w3.org/1999/xlink" x="0px" y="0px"
	 viewBox="0 0 45 45" style="enable-background:new 0 0 45 45;" xml:space="preserve">
<style type="text/css">
	.st0{fill:#CE0000;}
</style>
<g>
	<path class="st0" d="M6.3,9.1c-0.5-0.1-1,0.1-1.5,0C4.5,9.1,4.2,9,4.1,8.7C4,8.3,4.1,7.9,4.5,7.8c0.4-0.2,0.8-0.2,1.2-0.2
		C6,7.7,6.2,7.9,6.3,8.2c0.1,0.2,0.3,0.4,0.6,0.2c0.2-0.1,0.4-0.3,0.2-0.6C7.1,7.6,7,7.5,6.8,7.3C6,6.3,4.6,6.5,3.9,7.1
		c-1,0.7-0.9,2.1,0,2.7C4.3,10.1,4.8,10,5.3,10c0.2,0,0.5,0,0.7,0c0.5,0,0.8,0.4,0.7,0.9c-0.1,0.5-0.6,0.6-1,0.7
		c-0.6,0.1-1-0.1-1.3-0.5c-0.2-0.4-0.4-0.5-0.7-0.4c-0.3,0.1-0.3,0.4-0.1,0.8c0.3,0.6,0.8,0.9,1.5,1c0.9,0.1,1.7,0,2.3-0.9
		C7.8,10.9,7.7,9.4,6.3,9.1z M12.5,7.8c-0.3-1.5-1.1-2.1-2.6-1.9c-1,0.1-1.8,1-1.8,2c0,0.7,0.2,1.4,0.3,2c0.1,0.5,0.2,0.9,0.5,1.3
		c0.6,0.7,1.6,0.9,2.6,0.5c0.8-0.3,1.3-1.1,1.3-2.1C12.8,9.1,12.7,8.4,12.5,7.8z M11.1,10.9c-0.7,0.2-1.3,0-1.6-0.6
		c-0.2-0.5-0.2-1-0.3-1.5c0-0.3-0.1-0.6-0.1-0.8c0-0.9,0.4-1.3,1.1-1.4c0.8-0.1,1.3,0.3,1.4,1.1c0.1,0.6,0.2,1.2,0.3,1.8
		C12,10.2,11.6,10.8,11.1,10.9z M18.1,10.2c0-0.3-0.2-0.4-0.5-0.4c-0.1,0-0.1,0-0.2,0c-0.7,0.1-1.3,0.2-2,0.3
		c-0.5,0.1-0.5,0.1-0.6-0.4c-0.2-1.3-0.4-2.6-0.6-3.9c0-0.3-0.2-0.5-0.5-0.5c-0.3,0-0.4,0.3-0.4,0.6c0.1,0.4,0.1,0.7,0.2,1.1
		c0.2,1.2,0.4,2.4,0.6,3.7c0.1,0.4,0.2,0.5,0.6,0.5c1-0.2,2-0.3,3-0.5C18,10.6,18.1,10.4,18.1,10.2z M22.5,7.1
		c-0.1-1.2-0.6-2-1.7-2.5c-0.8-0.3-1.6-0.2-2.4,0C18,4.7,17.9,4.9,18,5.3c0.2,1.5,0.5,3.1,0.7,4.6c0,0.3,0.2,0.4,0.5,0.4
		c0.6,0,1.1-0.2,1.6-0.4c1.1-0.5,1.7-1.3,1.7-2.5C22.5,7.3,22.5,7.2,22.5,7.1z M21.5,8.1c-0.2,0.6-1.1,1.2-1.8,1.2
		c-0.2,0-0.2-0.1-0.2-0.2c-0.2-1.2-0.4-2.3-0.6-3.5c0-0.2,0.1-0.3,0.2-0.3c0.1,0,0.3,0,0.4,0C21.4,5.3,21.8,7,21.5,8.1z M22.5,7.1
		c-0.1-1.2-0.6-2-1.7-2.5c-0.8-0.3-1.6-0.2-2.4,0C18,4.7,17.9,4.9,18,5.3c0.2,1.5,0.5,3.1,0.7,4.6c0,0.3,0.2,0.4,0.5,0.4
		c0.6,0,1.1-0.2,1.6-0.4c1.1-0.5,1.7-1.3,1.7-2.5C22.5,7.3,22.5,7.2,22.5,7.1z M21.5,8.1c-0.2,0.6-1.1,1.2-1.8,1.2
		c-0.2,0-0.2-0.1-0.2-0.2c-0.2-1.2-0.4-2.3-0.6-3.5c0-0.2,0.1-0.3,0.2-0.3c0.1,0,0.3,0,0.4,0C21.4,5.3,21.8,7,21.5,8.1z M18.1,10.2
		c0-0.3-0.2-0.4-0.5-0.4c-0.1,0-0.1,0-0.2,0c-0.7,0.1-1.3,0.2-2,0.3c-0.5,0.1-0.5,0.1-0.6-0.4c-0.2-1.3-0.4-2.6-0.6-3.9
		c0-0.3-0.2-0.5-0.5-0.5c-0.3,0-0.4,0.3-0.4,0.6c0.1,0.4,0.1,0.7,0.2,1.1c0.2,1.2,0.4,2.4,0.6,3.7c0.1,0.4,0.2,0.5,0.6,0.5
		c1-0.2,2-0.3,3-0.5C18,10.6,18.1,10.4,18.1,10.2z M12.5,7.8c-0.3-1.5-1.1-2.1-2.6-1.9c-1,0.1-1.8,1-1.8,2c0,0.7,0.2,1.4,0.3,2
		c0.1,0.5,0.2,0.9,0.5,1.3c0.6,0.7,1.6,0.9,2.6,0.5c0.8-0.3,1.3-1.1,1.3-2.1C12.8,9.1,12.7,8.4,12.5,7.8z M11.1,10.9
		c-0.7,0.2-1.3,0-1.6-0.6c-0.2-0.5-0.2-1-0.3-1.5c0-0.3-0.1-0.6-0.1-0.8c0-0.9,0.4-1.3,1.1-1.4c0.8-0.1,1.3,0.3,1.4,1.1
		c0.1,0.6,0.2,1.2,0.3,1.8C12,10.2,11.6,10.8,11.1,10.9z M6.3,9.1c-0.5-0.1-1,0.1-1.5,0C4.5,9.1,4.2,9,4.1,8.7
		C4,8.3,4.1,7.9,4.5,7.8c0.4-0.2,0.8-0.2,1.2-0.2C6,7.7,6.2,7.9,6.3,8.2c0.1,0.2,0.3,0.4,0.6,0.2c0.2-0.1,0.4-0.3,0.2-0.6
		C7.1,7.6,7,7.5,6.8,7.3C6,6.3,4.6,6.5,3.9,7.1c-1,0.7-0.9,2.1,0,2.7C4.3,10.1,4.8,10,5.3,10c0.2,0,0.5,0,0.7,0
		c0.5,0,0.8,0.4,0.7,0.9c-0.1,0.5-0.6,0.6-1,0.7c-0.6,0.1-1-0.1-1.3-0.5c-0.2-0.4-0.4-0.5-0.7-0.4c-0.3,0.1-0.3,0.4-0.1,0.8
		c0.3,0.6,0.8,0.9,1.5,1c0.9,0.1,1.7,0,2.3-0.9C7.8,10.9,7.7,9.4,6.3,9.1z M6.3,9.1c-0.5-0.1-1,0.1-1.5,0C4.5,9.1,4.2,9,4.1,8.7
		C4,8.3,4.1,7.9,4.5,7.8c0.4-0.2,0.8-0.2,1.2-0.2C6,7.7,6.2,7.9,6.3,8.2c0.1,0.2,0.3,0.4,0.6,0.2c0.2-0.1,0.4-0.3,0.2-0.6
		C7.1,7.6,7,7.5,6.8,7.3C6,6.3,4.6,6.5,3.9,7.1c-1,0.7-0.9,2.1,0,2.7C4.3,10.1,4.8,10,5.3,10c0.2,0,0.5,0,0.7,0
		c0.5,0,0.8,0.4,0.7,0.9c-0.1,0.5-0.6,0.6-1,0.7c-0.6,0.1-1-0.1-1.3-0.5c-0.2-0.4-0.4-0.5-0.7-0.4c-0.3,0.1-0.3,0.4-0.1,0.8
		c0.3,0.6,0.8,0.9,1.5,1c0.9,0.1,1.7,0,2.3-0.9C7.8,10.9,7.7,9.4,6.3,9.1z M12.5,7.8c-0.3-1.5-1.1-2.1-2.6-1.9c-1,0.1-1.8,1-1.8,2
		c0,0.7,0.2,1.4,0.3,2c0.1,0.5,0.2,0.9,0.5,1.3c0.6,0.7,1.6,0.9,2.6,0.5c0.8-0.3,1.3-1.1,1.3-2.1C12.8,9.1,12.7,8.4,12.5,7.8z
		 M11.1,10.9c-0.7,0.2-1.3,0-1.6-0.6c-0.2-0.5-0.2-1-0.3-1.5c0-0.3-0.1-0.6-0.1-0.8c0-0.9,0.4-1.3,1.1-1.4c0.8-0.1,1.3,0.3,1.4,1.1
		c0.1,0.6,0.2,1.2,0.3,1.8C12,10.2,11.6,10.8,11.1,10.9z M18.1,10.2c0-0.3-0.2-0.4-0.5-0.4c-0.1,0-0.1,0-0.2,0
		c-0.7,0.1-1.3,0.2-2,0.3c-0.5,0.1-0.5,0.1-0.6-0.4c-0.2-1.3-0.4-2.6-0.6-3.9c0-0.3-0.2-0.5-0.5-0.5c-0.3,0-0.4,0.3-0.4,0.6
		c0.1,0.4,0.1,0.7,0.2,1.1c0.2,1.2,0.4,2.4,0.6,3.7c0.1,0.4,0.2,0.5,0.6,0.5c1-0.2,2-0.3,3-0.5C18,10.6,18.1,10.4,18.1,10.2z
		 M22.5,7.1c-0.1-1.2-0.6-2-1.7-2.5c-0.8-0.3-1.6-0.2-2.4,0C18,4.7,17.9,4.9,18,5.3c0.2,1.5,0.5,3.1,0.7,4.6c0,0.3,0.2,0.4,0.5,0.4
		c0.6,0,1.1-0.2,1.6-0.4c1.1-0.5,1.7-1.3,1.7-2.5C22.5,7.3,22.5,7.2,22.5,7.1z M21.5,8.1c-0.2,0.6-1.1,1.2-1.8,1.2
		c-0.2,0-0.2-0.1-0.2-0.2c-0.2-1.2-0.4-2.3-0.6-3.5c0-0.2,0.1-0.3,0.2-0.3c0.1,0,0.3,0,0.4,0C21.4,5.3,21.8,7,21.5,8.1z M22.5,7.1
		c-0.1-1.2-0.6-2-1.7-2.5c-0.8-0.3-1.6-0.2-2.4,0C18,4.7,17.9,4.9,18,5.3c0.2,1.5,0.5,3.1,0.7,4.6c0,0.3,0.2,0.4,0.5,0.4
		c0.6,0,1.1-0.2,1.6-0.4c1.1-0.5,1.7-1.3,1.7-2.5C22.5,7.3,22.5,7.2,22.5,7.1z M21.5,8.1c-0.2,0.6-1.1,1.2-1.8,1.2
		c-0.2,0-0.2-0.1-0.2-0.2c-0.2-1.2-0.4-2.3-0.6-3.5c0-0.2,0.1-0.3,0.2-0.3c0.1,0,0.3,0,0.4,0C21.4,5.3,21.8,7,21.5,8.1z M18.1,10.2
		c0-0.3-0.2-0.4-0.5-0.4c-0.1,0-0.1,0-0.2,0c-0.7,0.1-1.3,0.2-2,0.3c-0.5,0.1-0.5,0.1-0.6-0.4c-0.2-1.3-0.4-2.6-0.6-3.9
		c0-0.3-0.2-0.5-0.5-0.5c-0.3,0-0.4,0.3-0.4,0.6c0.1,0.4,0.1,0.7,0.2,1.1c0.2,1.2,0.4,2.4,0.6,3.7c0.1,0.4,0.2,0.5,0.6,0.5
		c1-0.2,2-0.3,3-0.5C18,10.6,18.1,10.4,18.1,10.2z M12.5,7.8c-0.3-1.5-1.1-2.1-2.6-1.9c-1,0.1-1.8,1-1.8,2c0,0.7,0.2,1.4,0.3,2
		c0.1,0.5,0.2,0.9,0.5,1.3c0.6,0.7,1.6,0.9,2.6,0.5c0.8-0.3,1.3-1.1,1.3-2.1C12.8,9.1,12.7,8.4,12.5,7.8z M11.1,10.9
		c-0.7,0.2-1.3,0-1.6-0.6c-0.2-0.5-0.2-1-0.3-1.5c0-0.3-0.1-0.6-0.1-0.8c0-0.9,0.4-1.3,1.1-1.4c0.8-0.1,1.3,0.3,1.4,1.1
		c0.1,0.6,0.2,1.2,0.3,1.8C12,10.2,11.6,10.8,11.1,10.9z M6.3,9.1c-0.5-0.1-1,0.1-1.5,0C4.5,9.1,4.2,9,4.1,8.7
		C4,8.3,4.1,7.9,4.5,7.8c0.4-0.2,0.8-0.2,1.2-0.2C6,7.7,6.2,7.9,6.3,8.2c0.1,0.2,0.3,0.4,0.6,0.2c0.2-0.1,0.4-0.3,0.2-0.6
		C7.1,7.6,7,7.5,6.8,7.3C6,6.3,4.6,6.5,3.9,7.1c-1,0.7-0.9,2.1,0,2.7C4.3,10.1,4.8,10,5.3,10c0.2,0,0.5,0,0.7,0
		c0.5,0,0.8,0.4,0.7,0.9c-0.1,0.5-0.6,0.6-1,0.7c-0.6,0.1-1-0.1-1.3-0.5c-0.2-0.4-0.4-0.5-0.7-0.4c-0.3,0.1-0.3,0.4-0.1,0.8
		c0.3,0.6,0.8,0.9,1.5,1c0.9,0.1,1.7,0,2.3-0.9C7.8,10.9,7.7,9.4,6.3,9.1z M6.3,9.1c-0.5-0.1-1,0.1-1.5,0C4.5,9.1,4.2,9,4.1,8.7
		C4,8.3,4.1,7.9,4.5,7.8c0.4-0.2,0.8-0.2,1.2-0.2C6,7.7,6.2,7.9,6.3,8.2c0.1,0.2,0.3,0.4,0.6,0.2c0.2-0.1,0.4-0.3,0.2-0.6
		C7.1,7.6,7,7.5,6.8,7.3C6,6.3,4.6,6.5,3.9,7.1c-1,0.7-0.9,2.1,0,2.7C4.3,10.1,4.8,10,5.3,10c0.2,0,0.5,0,0.7,0
		c0.5,0,0.8,0.4,0.7,0.9c-0.1,0.5-0.6,0.6-1,0.7c-0.6,0.1-1-0.1-1.3-0.5c-0.2-0.4-0.4-0.5-0.7-0.4c-0.3,0.1-0.3,0.4-0.1,0.8
		c0.3,0.6,0.8,0.9,1.5,1c0.9,0.1,1.7,0,2.3-0.9C7.8,10.9,7.7,9.4,6.3,9.1z M12.5,7.8c-0.3-1.5-1.1-2.1-2.6-1.9c-1,0.1-1.8,1-1.8,2
		c0,0.7,0.2,1.4,0.3,2c0.1,0.5,0.2,0.9,0.5,1.3c0.6,0.7,1.6,0.9,2.6,0.5c0.8-0.3,1.3-1.1,1.3-2.1C12.8,9.1,12.7,8.4,12.5,7.8z
		 M11.1,10.9c-0.7,0.2-1.3,0-1.6-0.6c-0.2-0.5-0.2-1-0.3-1.5c0-0.3-0.1-0.6-0.1-0.8c0-0.9,0.4-1.3,1.1-1.4c0.8-0.1,1.3,0.3,1.4,1.1
		c0.1,0.6,0.2,1.2,0.3,1.8C12,10.2,11.6,10.8,11.1,10.9z M17.5,37c-0.1-0.2-0.3-0.3-0.5-0.3c-1.4,0-2.7,0-4.1,0c-1.4,0-2.8,0-4.2,0
		c-0.3,0-0.6,0.2-0.5,0.5c0,0.3,0.2,0.4,0.5,0.4h8.2c0.1,0,0.2,0,0.3,0C17.4,37.6,17.6,37.3,17.5,37z M16.9,38.9
		c-0.8-0.1-1.5,0-2.3,0c-0.8-0.1-1.6,0-2.4,0c-1,0-2,0-3,0c-0.3,0-0.5-0.1-0.8,0c-0.2,0.1-0.3,0.2-0.3,0.4c0,0.2,0.1,0.4,0.3,0.4
		c0.1,0,0.2,0,0.4,0c1.3,0,2.6,0,4,0c1.4,0,2.7,0,4.1,0c0.4,0,0.6-0.2,0.6-0.5C17.5,39,17.3,38.9,16.9,38.9z M18.1,10.2
		c0-0.3-0.2-0.4-0.5-0.4c-0.1,0-0.1,0-0.2,0c-0.7,0.1-1.3,0.2-2,0.3c-0.5,0.1-0.5,0.1-0.6-0.4c-0.2-1.3-0.4-2.6-0.6-3.9
		c0-0.3-0.2-0.5-0.5-0.5c-0.3,0-0.4,0.3-0.4,0.6c0.1,0.4,0.1,0.7,0.2,1.1c0.2,1.2,0.4,2.4,0.6,3.7c0.1,0.4,0.2,0.5,0.6,0.5
		c1-0.2,2-0.3,3-0.5C18,10.6,18.1,10.4,18.1,10.2z M16.9,38.9c-0.8-0.1-1.5,0-2.3,0c-0.8-0.1-1.6,0-2.4,0c-1,0-2,0-3,0
		c-0.3,0-0.5-0.1-0.8,0c-0.2,0.1-0.3,0.2-0.3,0.4c0,0.2,0.1,0.4,0.3,0.4c0.1,0,0.2,0,0.4,0c1.3,0,2.6,0,4,0c1.4,0,2.7,0,4.1,0
		c0.4,0,0.6-0.2,0.6-0.5C17.5,39,17.3,38.9,16.9,38.9z M8.6,37.6h8.2c0.1,0,0.2,0,0.3,0c0.3,0,0.5-0.3,0.4-0.6
		c-0.1-0.2-0.3-0.3-0.5-0.3c-1.4,0-2.7,0-4.1,0c-1.4,0-2.8,0-4.2,0c-0.3,0-0.6,0.2-0.5,0.5C8.1,37.5,8.3,37.6,8.6,37.6z M19,34.5
		c-2.1,0-4.1,0-6.1,0s-4.1,0-6.1,0c-0.6,0-0.7,0.1-0.7,0.7c0,2,0,4,0,5.9c0,0.6,0.2,0.7,0.7,0.7c4.1,0,8.2,0,12.2,0
		c0.5,0,0.7-0.1,0.7-0.7c0-2,0-4,0-6C19.7,34.6,19.5,34.5,19,34.5z M18.4,41c-1.8,0-3.7,0-5.5,0c-1.8,0-3.7,0-5.5,0
		C7.1,41,7,40.9,7,40.6c0-1.6,0-3.2,0-4.8c0-0.3,0.1-0.4,0.3-0.4c3.7,0,7.4,0,11.1,0c0.3,0,0.3,0.1,0.3,0.3c0,1.6,0,3.2,0,4.9
		C18.8,40.9,18.7,41,18.4,41z M16.9,38.9c-0.8-0.1-1.5,0-2.3,0c-0.8-0.1-1.6,0-2.4,0c-1,0-2,0-3,0c-0.3,0-0.5-0.1-0.8,0
		c-0.2,0.1-0.3,0.2-0.3,0.4c0,0.2,0.1,0.4,0.3,0.4c0.1,0,0.2,0,0.4,0c1.3,0,2.6,0,4,0c1.4,0,2.7,0,4.1,0c0.4,0,0.6-0.2,0.6-0.5
		C17.5,39,17.3,38.9,16.9,38.9z M17,36.7c-1.4,0-2.7,0-4.1,0c-1.4,0-2.8,0-4.2,0c-0.3,0-0.6,0.2-0.5,0.5c0,0.3,0.2,0.4,0.5,0.4h8.2
		c0.1,0,0.2,0,0.3,0c0.3,0,0.5-0.3,0.4-0.6C17.4,36.8,17.2,36.7,17,36.7z M22.5,7.1c-0.1-1.2-0.6-2-1.7-2.5c-0.8-0.3-1.6-0.2-2.4,0
		C18,4.7,17.9,4.9,18,5.3c0.2,1.5,0.5,3.1,0.7,4.6c0,0.3,0.2,0.4,0.5,0.4c0.6,0,1.1-0.2,1.6-0.4c1.1-0.5,1.7-1.3,1.7-2.5
		C22.5,7.3,22.5,7.2,22.5,7.1z M21.5,8.1c-0.2,0.6-1.1,1.2-1.8,1.2c-0.2,0-0.2-0.1-0.2-0.2c-0.2-1.2-0.4-2.3-0.6-3.5
		c0-0.2,0.1-0.3,0.2-0.3c0.1,0,0.3,0,0.4,0C21.4,5.3,21.8,7,21.5,8.1z M19,34.5c-2.1,0-4.1,0-6.1,0s-4.1,0-6.1,0
		c-0.6,0-0.7,0.1-0.7,0.7c0,2,0,4,0,5.9c0,0.6,0.2,0.7,0.7,0.7c4.1,0,8.2,0,12.2,0c0.5,0,0.7-0.1,0.7-0.7c0-2,0-4,0-6
		C19.7,34.6,19.5,34.5,19,34.5z M18.4,41c-1.8,0-3.7,0-5.5,0c-1.8,0-3.7,0-5.5,0C7.1,41,7,40.9,7,40.6c0-1.6,0-3.2,0-4.8
		c0-0.3,0.1-0.4,0.3-0.4c3.7,0,7.4,0,11.1,0c0.3,0,0.3,0.1,0.3,0.3c0,1.6,0,3.2,0,4.9C18.8,40.9,18.7,41,18.4,41z M16.9,38.9
		c-0.8-0.1-1.5,0-2.3,0c-0.8-0.1-1.6,0-2.4,0c-1,0-2,0-3,0c-0.3,0-0.5-0.1-0.8,0c-0.2,0.1-0.3,0.2-0.3,0.4c0,0.2,0.1,0.4,0.3,0.4
		c0.1,0,0.2,0,0.4,0c1.3,0,2.6,0,4,0c1.4,0,2.7,0,4.1,0c0.4,0,0.6-0.2,0.6-0.5C17.5,39,17.3,38.9,16.9,38.9z M17,36.7
		c-1.4,0-2.7,0-4.1,0c-1.4,0-2.8,0-4.2,0c-0.3,0-0.6,0.2-0.5,0.5c0,0.3,0.2,0.4,0.5,0.4h8.2c0.1,0,0.2,0,0.3,0
		c0.3,0,0.5-0.3,0.4-0.6C17.4,36.8,17.2,36.7,17,36.7z M22.5,7.1c-0.1-1.2-0.6-2-1.7-2.5c-0.8-0.3-1.6-0.2-2.4,0
		C18,4.7,17.9,4.9,18,5.3c0.2,1.5,0.5,3.1,0.7,4.6c0,0.3,0.2,0.4,0.5,0.4c0.6,0,1.1-0.2,1.6-0.4c1.1-0.5,1.7-1.3,1.7-2.5
		C22.5,7.3,22.5,7.2,22.5,7.1z M21.5,8.1c-0.2,0.6-1.1,1.2-1.8,1.2c-0.2,0-0.2-0.1-0.2-0.2c-0.2-1.2-0.4-2.3-0.6-3.5
		c0-0.2,0.1-0.3,0.2-0.3c0.1,0,0.3,0,0.4,0C21.4,5.3,21.8,7,21.5,8.1z M17.6,9.8c-0.1,0-0.1,0-0.2,0c-0.7,0.1-1.3,0.2-2,0.3
		c-0.5,0.1-0.5,0.1-0.6-0.4c-0.2-1.3-0.4-2.6-0.6-3.9c0-0.3-0.2-0.5-0.5-0.5c-0.3,0-0.4,0.3-0.4,0.6c0.1,0.4,0.1,0.7,0.2,1.1
		c0.2,1.2,0.4,2.4,0.6,3.7c0.1,0.4,0.2,0.5,0.6,0.5c1-0.2,2-0.3,3-0.5c0.3,0,0.4-0.2,0.4-0.5C18.1,9.9,17.9,9.8,17.6,9.8z M10,5.9
		c-1,0.1-1.8,1-1.8,2c0,0.7,0.2,1.4,0.3,2c0.1,0.5,0.2,0.9,0.5,1.3c0.6,0.7,1.6,0.9,2.6,0.5c0.8-0.3,1.3-1.1,1.3-2.1
		c0-0.7-0.1-1.3-0.3-1.9C12.2,6.3,11.4,5.7,10,5.9z M11.1,10.9c-0.7,0.2-1.3,0-1.6-0.6c-0.2-0.5-0.2-1-0.3-1.5
		c0-0.3-0.1-0.6-0.1-0.8c0-0.9,0.4-1.3,1.1-1.4c0.8-0.1,1.3,0.3,1.4,1.1c0.1,0.6,0.2,1.2,0.3,1.8C12,10.2,11.6,10.8,11.1,10.9z
		 M6.3,9.1c-0.5-0.1-1,0.1-1.5,0C4.5,9.1,4.2,9,4.1,8.7C4,8.3,4.1,7.9,4.5,7.8c0.4-0.2,0.8-0.2,1.2-0.2C6,7.7,6.2,7.9,6.3,8.2
		c0.1,0.2,0.3,0.4,0.6,0.2c0.2-0.1,0.4-0.3,0.2-0.6C7.1,7.6,7,7.5,6.8,7.3C6,6.3,4.6,6.5,3.9,7.1c-1,0.7-0.9,2.1,0,2.7
		C4.3,10.1,4.8,10,5.3,10c0.2,0,0.5,0,0.7,0c0.5,0,0.8,0.4,0.7,0.9c-0.1,0.5-0.6,0.6-1,0.7c-0.6,0.1-1-0.1-1.3-0.5
		c-0.2-0.4-0.4-0.5-0.7-0.4c-0.3,0.1-0.3,0.4-0.1,0.8c0.3,0.6,0.8,0.9,1.5,1c0.9,0.1,1.7,0,2.3-0.9C7.8,10.9,7.7,9.4,6.3,9.1z
		 M44.9,29.6c-0.1-0.2-0.2-0.4-0.2-0.6c-0.8-2.6-1.7-5.2-2.5-7.7c-0.2-0.7-0.2-0.7-1-0.7c-8.5,0-17.1,0-25.6,0c-0.3,0-0.4,0-0.5-0.3
		c-0.3-2-0.6-4-0.9-6.1c0-0.2,0-0.3,0.2-0.3c1.4-0.2,2.8-0.4,4.2-0.7c1.9-0.3,3.8-0.6,5.7-0.9c0.9-0.1,1.3-0.8,1.2-1.7
		c-0.2-1.4-0.4-2.7-0.6-4.1c-0.2-1.3-0.4-2.7-0.6-4c-0.1-1-0.9-1.5-1.8-1.3c-0.7,0.1-1.4,0.2-2.1,0.3c-1.7,0.3-3.4,0.5-5,0.8
		c-0.9,0.1-1.7,0.3-2.6,0.4c-0.2,0-0.3,0-0.3-0.2c-0.1-0.6-0.2-1.3-0.3-1.9C12,0.2,11.8,0,11.5,0c-0.3,0-0.5,0.3-0.4,0.7
		c0.1,0.7,0.2,1.3,0.3,2c0,0.2,0,0.3-0.2,0.3c-1,0.1-1.9,0.3-2.9,0.4C6,3.7,3.7,4.1,1.4,4.5C0.4,4.6-0.1,5.3,0.1,6.4
		C0.2,7.2,0.4,8.1,0.5,9c0.3,1.8,0.6,3.6,0.9,5.4c0.1,0.9,0.8,1.3,1.6,1.2c0.5-0.1,1.1-0.2,1.6-0.2c2.6-0.4,5.3-0.8,7.9-1.2
		c0.7-0.1,0.7-0.1,0.8,0.6c0.3,1.8,0.5,3.6,0.8,5.3c0.1,0.5,0.1,0.5-0.4,0.5c-3.4,0-6.9,0-10.3,0c-0.4,0-0.6,0.1-0.7,0.5
		c-0.9,2.8-1.8,5.6-2.7,8.5c-0.2,0.5,0,0.8,0.5,0.8c0.6,0,1.2,0,1.8,0c0.3,0,0.4,0.1,0.4,0.4c0,0.7,0,1.3,0,2c0,1,0,1.9,0,2.9
		c0,0.9,0,1.8,0,2.7c0,1,0,1.9,0,2.9c0,1,0,2.1,0,3.1c0,0.7,0.1,0.7,0.7,0.7c6.3,0,12.6,0,18.9,0h18.9c0.7,0,0.8-0.1,0.8-0.8
		c0-4.5,0-9,0-13.5c0-0.3,0.1-0.5,0.5-0.5c0.6,0,1.3,0,1.9,0C44.8,30.3,45,30,44.9,29.6z M9.8,13.6c-1.5,0.2-2.9,0.5-4.4,0.7
		c-0.8,0.1-1.7,0.3-2.5,0.4c-0.3,0-0.5-0.1-0.6-0.4c-0.1-0.9-0.3-1.8-0.4-2.7c-0.2-1.5-0.5-3-0.7-4.5C1.1,6.7,1,6.3,1,6
		c0-0.3,0.1-0.5,0.5-0.6c1-0.2,2.1-0.3,3.1-0.5C6.4,4.6,8.2,4.3,10.1,4c2.5-0.4,4.9-0.7,7.4-1.1c1.6-0.3,3.3-0.5,4.9-0.8
		c0.1,0,0.2,0,0.3,0c0.4,0,0.6,0.1,0.7,0.5c0.2,1.2,0.4,2.3,0.6,3.5c0.2,1.3,0.4,2.7,0.6,4c0.1,0.8,0.4,1.1-0.9,1.3
		c-1.7,0.2-3.4,0.5-5,0.8c-1.3,0.2-2.6,0.4-3.8,0.6C13.1,13.1,11.4,13.4,9.8,13.6z M1.5,29.4c-0.3,0-0.4-0.1-0.3-0.4
		c0.5-1.6,1-3.2,1.6-4.8c0.3-0.8,0.5-1.6,0.8-2.5c0.1-0.2,0.2-0.3,0.4-0.3c5.8,0,11.7,0,17.5,0c0.3,0,0.3,0.1,0.2,0.4
		c-0.7,2.2-1.5,4.5-2.2,6.7c-0.3,1.1-0.2,0.9-1.2,0.9c-2.7,0-5.5,0-8.2,0C7.3,29.4,4.4,29.4,1.5,29.4z M21.9,43.6
		c0,0.5,0,0.5-0.5,0.5H4.1c-0.5,0-0.5,0-0.5-0.5c0-4.3,0-8.6,0-12.9c0-0.4,0.1-0.4,0.5-0.4c5.1,0,10.1,0,15.2,0
		c0.6,0,0.6-0.1,0.8-0.6c0.6-1.7,1.1-3.4,1.7-5.1c0-0.1,0-0.1,0.1-0.2c0.1,0.1,0,0.3,0,0.4C21.9,31.1,21.9,37.4,21.9,43.6z
		 M41.2,43.6c0,0.5,0,0.5-0.5,0.5c-5.8,0-11.6,0-17.4,0c-0.3,0-0.4,0-0.4-0.4c0-6.5,0-13,0-19.4c0,0,0-0.1,0-0.1c0,0,0.1,0,0.1,0
		c0.2,0.6,0.4,1.2,0.6,1.7c0.4,1.3,0.8,2.6,1.3,4c0.1,0.3,0.3,0.5,0.7,0.5c5,0,10.1,0,15.1,0c0.5,0,0.5,0,0.5,0.5
		C41.2,35,41.2,39.3,41.2,43.6z M43.7,29.3c-0.1,0.2-0.5,0.1-0.8,0.1c-5.6,0-11.2,0-16.9,0c-0.3,0-0.5-0.1-0.6-0.4
		c-0.6-1.9-1.2-3.8-1.8-5.7c-0.2-0.5-0.3-1-0.5-1.4c-0.1-0.3,0-0.4,0.3-0.4c2.9,0,5.8,0,8.7,0c2.9,0,5.8,0,8.7,0
		c0.3,0,0.5,0.1,0.6,0.4c0.7,2.3,1.4,4.5,2.2,6.8C43.6,28.8,43.9,29.1,43.7,29.3z M32.7,35.5c-0.2-0.2-0.5-0.2-0.7,0
		c-0.3,0.3-0.5,0.5-0.8,0.8c-0.5,0.5-1.1,1.1-1.6,1.6c-0.2,0.2-0.2,0.4,0,0.6c0.2,0.2,0.4,0.2,0.6,0.1c0.1-0.1,0.2-0.2,0.3-0.3
		c0.4-0.4,0.9-0.9,1.3-1.3c0,0,0.1,0,0.1,0.1c0,0.1,0,0.2,0,0.3c0,1.1,0,2.2,0,3.3c0,0.5,0.1,0.7,0.5,0.7c0.3,0,0.4-0.2,0.4-0.7
		c0-1.1,0-2.1,0-3.2c0-0.1-0.1-0.3,0.1-0.4c0.1-0.1,0.2,0.1,0.3,0.2c0.4,0.4,0.8,0.8,1.2,1.2c0.2,0.2,0.5,0.2,0.7,0.1
		c0.2-0.2,0.2-0.5-0.1-0.7C34.3,37.1,33.5,36.3,32.7,35.5z M18.7,9.9c0,0.3,0.2,0.4,0.5,0.4c0.6,0,1.1-0.2,1.6-0.4
		c1.1-0.5,1.7-1.3,1.7-2.5c0-0.1,0-0.2,0-0.3c-0.1-1.2-0.6-2-1.7-2.5c-0.8-0.3-1.6-0.2-2.4,0C18,4.7,17.9,4.9,18,5.3
		C18.2,6.8,18.4,8.3,18.7,9.9z M19.2,5.4c0.1,0,0.3,0,0.4,0c1.8-0.1,2.2,1.6,1.9,2.7c-0.2,0.6-1.1,1.2-1.8,1.2
		c-0.2,0-0.2-0.1-0.2-0.2c-0.2-1.2-0.4-2.3-0.6-3.5C18.9,5.4,19,5.4,19.2,5.4z M19,34.5c-2.1,0-4.1,0-6.1,0s-4.1,0-6.1,0
		c-0.6,0-0.7,0.1-0.7,0.7c0,2,0,4,0,5.9c0,0.6,0.2,0.7,0.7,0.7c4.1,0,8.2,0,12.2,0c0.5,0,0.7-0.1,0.7-0.7c0-2,0-4,0-6
		C19.7,34.6,19.5,34.5,19,34.5z M18.4,41c-1.8,0-3.7,0-5.5,0c-1.8,0-3.7,0-5.5,0C7.1,41,7,40.9,7,40.6c0-1.6,0-3.2,0-4.8
		c0-0.3,0.1-0.4,0.3-0.4c3.7,0,7.4,0,11.1,0c0.3,0,0.3,0.1,0.3,0.3c0,1.6,0,3.2,0,4.9C18.8,40.9,18.7,41,18.4,41z M18.1,10.2
		c0-0.3-0.2-0.4-0.5-0.4c-0.1,0-0.1,0-0.2,0c-0.7,0.1-1.3,0.2-2,0.3c-0.5,0.1-0.5,0.1-0.6-0.4c-0.2-1.3-0.4-2.6-0.6-3.9
		c0-0.3-0.2-0.5-0.5-0.5c-0.3,0-0.4,0.3-0.4,0.6c0.1,0.4,0.1,0.7,0.2,1.1c0.2,1.2,0.4,2.4,0.6,3.7c0.1,0.4,0.2,0.5,0.6,0.5
		c1-0.2,2-0.3,3-0.5C18,10.6,18.1,10.4,18.1,10.2z M16.9,38.9c-0.8-0.1-1.5,0-2.3,0c-0.8-0.1-1.6,0-2.4,0c-1,0-2,0-3,0
		c-0.3,0-0.5-0.1-0.8,0c-0.2,0.1-0.3,0.2-0.3,0.4c0,0.2,0.1,0.4,0.3,0.4c0.1,0,0.2,0,0.4,0c1.3,0,2.6,0,4,0c1.4,0,2.7,0,4.1,0
		c0.4,0,0.6-0.2,0.6-0.5C17.5,39,17.3,38.9,16.9,38.9z M17,36.7c-1.4,0-2.7,0-4.1,0c-1.4,0-2.8,0-4.2,0c-0.3,0-0.6,0.2-0.5,0.5
		c0,0.3,0.2,0.4,0.5,0.4h8.2c0.1,0,0.2,0,0.3,0c0.3,0,0.5-0.3,0.4-0.6C17.4,36.8,17.2,36.7,17,36.7z M10,5.9c-1,0.1-1.8,1-1.8,2
		c0,0.7,0.2,1.4,0.3,2c0.1,0.5,0.2,0.9,0.5,1.3c0.6,0.7,1.6,0.9,2.6,0.5c0.8-0.3,1.3-1.1,1.3-2.1c0-0.7-0.1-1.3-0.3-1.9
		C12.2,6.3,11.4,5.7,10,5.9z M11.1,10.9c-0.7,0.2-1.3,0-1.6-0.6c-0.2-0.5-0.2-1-0.3-1.5c0-0.3-0.1-0.6-0.1-0.8
		c0-0.9,0.4-1.3,1.1-1.4c0.8-0.1,1.3,0.3,1.4,1.1c0.1,0.6,0.2,1.2,0.3,1.8C12,10.2,11.6,10.8,11.1,10.9z M6.3,9.1
		c-0.5-0.1-1,0.1-1.5,0C4.5,9.1,4.2,9,4.1,8.7C4,8.3,4.1,7.9,4.5,7.8c0.4-0.2,0.8-0.2,1.2-0.2C6,7.7,6.2,7.9,6.3,8.2
		c0.1,0.2,0.3,0.4,0.6,0.2c0.2-0.1,0.4-0.3,0.2-0.6C7.1,7.6,7,7.5,6.8,7.3C6,6.3,4.6,6.5,3.9,7.1c-1,0.7-0.9,2.1,0,2.7
		C4.3,10.1,4.8,10,5.3,10c0.2,0,0.5,0,0.7,0c0.5,0,0.8,0.4,0.7,0.9c-0.1,0.5-0.6,0.6-1,0.7c-0.6,0.1-1-0.1-1.3-0.5
		c-0.2-0.4-0.4-0.5-0.7-0.4c-0.3,0.1-0.3,0.4-0.1,0.8c0.3,0.6,0.8,0.9,1.5,1c0.9,0.1,1.7,0,2.3-0.9C7.8,10.9,7.7,9.4,6.3,9.1z
		 M6.3,9.1c-0.5-0.1-1,0.1-1.5,0C4.5,9.1,4.2,9,4.1,8.7C4,8.3,4.1,7.9,4.5,7.8c0.4-0.2,0.8-0.2,1.2-0.2C6,7.7,6.2,7.9,6.3,8.2
		c0.1,0.2,0.3,0.4,0.6,0.2c0.2-0.1,0.4-0.3,0.2-0.6C7.1,7.6,7,7.5,6.8,7.3C6,6.3,4.6,6.5,3.9,7.1c-1,0.7-0.9,2.1,0,2.7
		C4.3,10.1,4.8,10,5.3,10c0.2,0,0.5,0,0.7,0c0.5,0,0.8,0.4,0.7,0.9c-0.1,0.5-0.6,0.6-1,0.7c-0.6,0.1-1-0.1-1.3-0.5
		c-0.2-0.4-0.4-0.5-0.7-0.4c-0.3,0.1-0.3,0.4-0.1,0.8c0.3,0.6,0.8,0.9,1.5,1c0.9,0.1,1.7,0,2.3-0.9C7.8,10.9,7.7,9.4,6.3,9.1z
		 M12.5,7.8c-0.3-1.5-1.1-2.1-2.6-1.9c-1,0.1-1.8,1-1.8,2c0,0.7,0.2,1.4,0.3,2c0.1,0.5,0.2,0.9,0.5,1.3c0.6,0.7,1.6,0.9,2.6,0.5
		c0.8-0.3,1.3-1.1,1.3-2.1C12.8,9.1,12.7,8.4,12.5,7.8z M11.1,10.9c-0.7,0.2-1.3,0-1.6-0.6c-0.2-0.5-0.2-1-0.3-1.5
		c0-0.3-0.1-0.6-0.1-0.8c0-0.9,0.4-1.3,1.1-1.4c0.8-0.1,1.3,0.3,1.4,1.1c0.1,0.6,0.2,1.2,0.3,1.8C12,10.2,11.6,10.8,11.1,10.9z
		 M18.1,10.2c0-0.3-0.2-0.4-0.5-0.4c-0.1,0-0.1,0-0.2,0c-0.7,0.1-1.3,0.2-2,0.3c-0.5,0.1-0.5,0.1-0.6-0.4c-0.2-1.3-0.4-2.6-0.6-3.9
		c0-0.3-0.2-0.5-0.5-0.5c-0.3,0-0.4,0.3-0.4,0.6c0.1,0.4,0.1,0.7,0.2,1.1c0.2,1.2,0.4,2.4,0.6,3.7c0.1,0.4,0.2,0.5,0.6,0.5
		c1-0.2,2-0.3,3-0.5C18,10.6,18.1,10.4,18.1,10.2z M22.5,7.1c-0.1-1.2-0.6-2-1.7-2.5c-0.8-0.3-1.6-0.2-2.4,0C18,4.7,17.9,4.9,18,5.3
		c0.2,1.5,0.5,3.1,0.7,4.6c0,0.3,0.2,0.4,0.5,0.4c0.6,0,1.1-0.2,1.6-0.4c1.1-0.5,1.7-1.3,1.7-2.5C22.5,7.3,22.5,7.2,22.5,7.1z
		 M21.5,8.1c-0.2,0.6-1.1,1.2-1.8,1.2c-0.2,0-0.2-0.1-0.2-0.2c-0.2-1.2-0.4-2.3-0.6-3.5c0-0.2,0.1-0.3,0.2-0.3c0.1,0,0.3,0,0.4,0
		C21.4,5.3,21.8,7,21.5,8.1z M17.5,37c-0.1-0.2-0.3-0.3-0.5-0.3c-1.4,0-2.7,0-4.1,0c-1.4,0-2.8,0-4.2,0c-0.3,0-0.6,0.2-0.5,0.5
		c0,0.3,0.2,0.4,0.5,0.4h8.2c0.1,0,0.2,0,0.3,0C17.4,37.6,17.6,37.3,17.5,37z M16.9,38.9c-0.8-0.1-1.5,0-2.3,0c-0.8-0.1-1.6,0-2.4,0
		c-1,0-2,0-3,0c-0.3,0-0.5-0.1-0.8,0c-0.2,0.1-0.3,0.2-0.3,0.4c0,0.2,0.1,0.4,0.3,0.4c0.1,0,0.2,0,0.4,0c1.3,0,2.6,0,4,0
		c1.4,0,2.7,0,4.1,0c0.4,0,0.6-0.2,0.6-0.5C17.5,39,17.3,38.9,16.9,38.9z M16.9,38.9c-0.8-0.1-1.5,0-2.3,0c-0.8-0.1-1.6,0-2.4,0
		c-1,0-2,0-3,0c-0.3,0-0.5-0.1-0.8,0c-0.2,0.1-0.3,0.2-0.3,0.4c0,0.2,0.1,0.4,0.3,0.4c0.1,0,0.2,0,0.4,0c1.3,0,2.6,0,4,0
		c1.4,0,2.7,0,4.1,0c0.4,0,0.6-0.2,0.6-0.5C17.5,39,17.3,38.9,16.9,38.9z M8.6,37.6h8.2c0.1,0,0.2,0,0.3,0c0.3,0,0.5-0.3,0.4-0.6
		c-0.1-0.2-0.3-0.3-0.5-0.3c-1.4,0-2.7,0-4.1,0c-1.4,0-2.8,0-4.2,0c-0.3,0-0.6,0.2-0.5,0.5C8.1,37.5,8.3,37.6,8.6,37.6z M19,34.5
		c-2.1,0-4.1,0-6.1,0s-4.1,0-6.1,0c-0.6,0-0.7,0.1-0.7,0.7c0,2,0,4,0,5.9c0,0.6,0.2,0.7,0.7,0.7c4.1,0,8.2,0,12.2,0
		c0.5,0,0.7-0.1,0.7-0.7c0-2,0-4,0-6C19.7,34.6,19.5,34.5,19,34.5z M18.4,41c-1.8,0-3.7,0-5.5,0c-1.8,0-3.7,0-5.5,0
		C7.1,41,7,40.9,7,40.6c0-1.6,0-3.2,0-4.8c0-0.3,0.1-0.4,0.3-0.4c3.7,0,7.4,0,11.1,0c0.3,0,0.3,0.1,0.3,0.3c0,1.6,0,3.2,0,4.9
		C18.8,40.9,18.7,41,18.4,41z M16.9,38.9c-0.8-0.1-1.5,0-2.3,0c-0.8-0.1-1.6,0-2.4,0c-1,0-2,0-3,0c-0.3,0-0.5-0.1-0.8,0
		c-0.2,0.1-0.3,0.2-0.3,0.4c0,0.2,0.1,0.4,0.3,0.4c0.1,0,0.2,0,0.4,0c1.3,0,2.6,0,4,0c1.4,0,2.7,0,4.1,0c0.4,0,0.6-0.2,0.6-0.5
		C17.5,39,17.3,38.9,16.9,38.9z M17,36.7c-1.4,0-2.7,0-4.1,0c-1.4,0-2.8,0-4.2,0c-0.3,0-0.6,0.2-0.5,0.5c0,0.3,0.2,0.4,0.5,0.4h8.2
		c0.1,0,0.2,0,0.3,0c0.3,0,0.5-0.3,0.4-0.6C17.4,36.8,17.2,36.7,17,36.7z M22.5,7.1c-0.1-1.2-0.6-2-1.7-2.5c-0.8-0.3-1.6-0.2-2.4,0
		C18,4.7,17.9,4.9,18,5.3c0.2,1.5,0.5,3.1,0.7,4.6c0,0.3,0.2,0.4,0.5,0.4c0.6,0,1.1-0.2,1.6-0.4c1.1-0.5,1.7-1.3,1.7-2.5
		C22.5,7.3,22.5,7.2,22.5,7.1z M21.5,8.1c-0.2,0.6-1.1,1.2-1.8,1.2c-0.2,0-0.2-0.1-0.2-0.2c-0.2-1.2-0.4-2.3-0.6-3.5
		c0-0.2,0.1-0.3,0.2-0.3c0.1,0,0.3,0,0.4,0C21.4,5.3,21.8,7,21.5,8.1z M17.5,37c-0.1-0.2-0.3-0.3-0.5-0.3c-1.4,0-2.7,0-4.1,0
		c-1.4,0-2.8,0-4.2,0c-0.3,0-0.6,0.2-0.5,0.5c0,0.3,0.2,0.4,0.5,0.4h8.2c0.1,0,0.2,0,0.3,0C17.4,37.6,17.6,37.3,17.5,37z M16.9,38.9
		c-0.8-0.1-1.5,0-2.3,0c-0.8-0.1-1.6,0-2.4,0c-1,0-2,0-3,0c-0.3,0-0.5-0.1-0.8,0c-0.2,0.1-0.3,0.2-0.3,0.4c0,0.2,0.1,0.4,0.3,0.4
		c0.1,0,0.2,0,0.4,0c1.3,0,2.6,0,4,0c1.4,0,2.7,0,4.1,0c0.4,0,0.6-0.2,0.6-0.5C17.5,39,17.3,38.9,16.9,38.9z M16.9,38.9
		c-0.8-0.1-1.5,0-2.3,0c-0.8-0.1-1.6,0-2.4,0c-1,0-2,0-3,0c-0.3,0-0.5-0.1-0.8,0c-0.2,0.1-0.3,0.2-0.3,0.4c0,0.2,0.1,0.4,0.3,0.4
		c0.1,0,0.2,0,0.4,0c1.3,0,2.6,0,4,0c1.4,0,2.7,0,4.1,0c0.4,0,0.6-0.2,0.6-0.5C17.5,39,17.3,38.9,16.9,38.9z M8.6,37.6h8.2
		c0.1,0,0.2,0,0.3,0c0.3,0,0.5-0.3,0.4-0.6c-0.1-0.2-0.3-0.3-0.5-0.3c-1.4,0-2.7,0-4.1,0c-1.4,0-2.8,0-4.2,0c-0.3,0-0.6,0.2-0.5,0.5
		C8.1,37.5,8.3,37.6,8.6,37.6z M19,34.5c-2.1,0-4.1,0-6.1,0s-4.1,0-6.1,0c-0.6,0-0.7,0.1-0.7,0.7c0,2,0,4,0,5.9
		c0,0.6,0.2,0.7,0.7,0.7c4.1,0,8.2,0,12.2,0c0.5,0,0.7-0.1,0.7-0.7c0-2,0-4,0-6C19.7,34.6,19.5,34.5,19,34.5z M18.4,41
		c-1.8,0-3.7,0-5.5,0c-1.8,0-3.7,0-5.5,0C7.1,41,7,40.9,7,40.6c0-1.6,0-3.2,0-4.8c0-0.3,0.1-0.4,0.3-0.4c3.7,0,7.4,0,11.1,0
		c0.3,0,0.3,0.1,0.3,0.3c0,1.6,0,3.2,0,4.9C18.8,40.9,18.7,41,18.4,41z M16.9,38.9c-0.8-0.1-1.5,0-2.3,0c-0.8-0.1-1.6,0-2.4,0
		c-1,0-2,0-3,0c-0.3,0-0.5-0.1-0.8,0c-0.2,0.1-0.3,0.2-0.3,0.4c0,0.2,0.1,0.4,0.3,0.4c0.1,0,0.2,0,0.4,0c1.3,0,2.6,0,4,0
		c1.4,0,2.7,0,4.1,0c0.4,0,0.6-0.2,0.6-0.5C17.5,39,17.3,38.9,16.9,38.9z M17,36.7c-1.4,0-2.7,0-4.1,0c-1.4,0-2.8,0-4.2,0
		c-0.3,0-0.6,0.2-0.5,0.5c0,0.3,0.2,0.4,0.5,0.4h8.2c0.1,0,0.2,0,0.3,0c0.3,0,0.5-0.3,0.4-0.6C17.4,36.8,17.2,36.7,17,36.7z
		 M18.1,10.2c0-0.3-0.2-0.4-0.5-0.4c-0.1,0-0.1,0-0.2,0c-0.7,0.1-1.3,0.2-2,0.3c-0.5,0.1-0.5,0.1-0.6-0.4c-0.2-1.3-0.4-2.6-0.6-3.9
		c0-0.3-0.2-0.5-0.5-0.5c-0.3,0-0.4,0.3-0.4,0.6c0.1,0.4,0.1,0.7,0.2,1.1c0.2,1.2,0.4,2.4,0.6,3.7c0.1,0.4,0.2,0.5,0.6,0.5
		c1-0.2,2-0.3,3-0.5C18,10.6,18.1,10.4,18.1,10.2z M12.5,7.8c-0.3-1.5-1.1-2.1-2.6-1.9c-1,0.1-1.8,1-1.8,2c0,0.7,0.2,1.4,0.3,2
		c0.1,0.5,0.2,0.9,0.5,1.3c0.6,0.7,1.6,0.9,2.6,0.5c0.8-0.3,1.3-1.1,1.3-2.1C12.8,9.1,12.7,8.4,12.5,7.8z M11.1,10.9
		c-0.7,0.2-1.3,0-1.6-0.6c-0.2-0.5-0.2-1-0.3-1.5c0-0.3-0.1-0.6-0.1-0.8c0-0.9,0.4-1.3,1.1-1.4c0.8-0.1,1.3,0.3,1.4,1.1
		c0.1,0.6,0.2,1.2,0.3,1.8C12,10.2,11.6,10.8,11.1,10.9z M6.3,9.1c-0.5-0.1-1,0.1-1.5,0C4.5,9.1,4.2,9,4.1,8.7
		C4,8.3,4.1,7.9,4.5,7.8c0.4-0.2,0.8-0.2,1.2-0.2C6,7.7,6.2,7.9,6.3,8.2c0.1,0.2,0.3,0.4,0.6,0.2c0.2-0.1,0.4-0.3,0.2-0.6
		C7.1,7.6,7,7.5,6.8,7.3C6,6.3,4.6,6.5,3.9,7.1c-1,0.7-0.9,2.1,0,2.7C4.3,10.1,4.8,10,5.3,10c0.2,0,0.5,0,0.7,0
		c0.5,0,0.8,0.4,0.7,0.9c-0.1,0.5-0.6,0.6-1,0.7c-0.6,0.1-1-0.1-1.3-0.5c-0.2-0.4-0.4-0.5-0.7-0.4c-0.3,0.1-0.3,0.4-0.1,0.8
		c0.3,0.6,0.8,0.9,1.5,1c0.9,0.1,1.7,0,2.3-0.9C7.8,10.9,7.7,9.4,6.3,9.1z M6.3,9.1c-0.5-0.1-1,0.1-1.5,0C4.5,9.1,4.2,9,4.1,8.7
		C4,8.3,4.1,7.9,4.5,7.8c0.4-0.2,0.8-0.2,1.2-0.2C6,7.7,6.2,7.9,6.3,8.2c0.1,0.2,0.3,0.4,0.6,0.2c0.2-0.1,0.4-0.3,0.2-0.6
		C7.1,7.6,7,7.5,6.8,7.3C6,6.3,4.6,6.5,3.9,7.1c-1,0.7-0.9,2.1,0,2.7C4.3,10.1,4.8,10,5.3,10c0.2,0,0.5,0,0.7,0
		c0.5,0,0.8,0.4,0.7,0.9c-0.1,0.5-0.6,0.6-1,0.7c-0.6,0.1-1-0.1-1.3-0.5c-0.2-0.4-0.4-0.5-0.7-0.4c-0.3,0.1-0.3,0.4-0.1,0.8
		c0.3,0.6,0.8,0.9,1.5,1c0.9,0.1,1.7,0,2.3-0.9C7.8,10.9,7.7,9.4,6.3,9.1z M12.5,7.8c-0.3-1.5-1.1-2.1-2.6-1.9c-1,0.1-1.8,1-1.8,2
		c0,0.7,0.2,1.4,0.3,2c0.1,0.5,0.2,0.9,0.5,1.3c0.6,0.7,1.6,0.9,2.6,0.5c0.8-0.3,1.3-1.1,1.3-2.1C12.8,9.1,12.7,8.4,12.5,7.8z
		 M11.1,10.9c-0.7,0.2-1.3,0-1.6-0.6c-0.2-0.5-0.2-1-0.3-1.5c0-0.3-0.1-0.6-0.1-0.8c0-0.9,0.4-1.3,1.1-1.4c0.8-0.1,1.3,0.3,1.4,1.1
		c0.1,0.6,0.2,1.2,0.3,1.8C12,10.2,11.6,10.8,11.1,10.9z M18.1,10.2c0-0.3-0.2-0.4-0.5-0.4c-0.1,0-0.1,0-0.2,0
		c-0.7,0.1-1.3,0.2-2,0.3c-0.5,0.1-0.5,0.1-0.6-0.4c-0.2-1.3-0.4-2.6-0.6-3.9c0-0.3-0.2-0.5-0.5-0.5c-0.3,0-0.4,0.3-0.4,0.6
		c0.1,0.4,0.1,0.7,0.2,1.1c0.2,1.2,0.4,2.4,0.6,3.7c0.1,0.4,0.2,0.5,0.6,0.5c1-0.2,2-0.3,3-0.5C18,10.6,18.1,10.4,18.1,10.2z
		 M22.5,7.1c-0.1-1.2-0.6-2-1.7-2.5c-0.8-0.3-1.6-0.2-2.4,0C18,4.7,17.9,4.9,18,5.3c0.2,1.5,0.5,3.1,0.7,4.6c0,0.3,0.2,0.4,0.5,0.4
		c0.6,0,1.1-0.2,1.6-0.4c1.1-0.5,1.7-1.3,1.7-2.5C22.5,7.3,22.5,7.2,22.5,7.1z M21.5,8.1c-0.2,0.6-1.1,1.2-1.8,1.2
		c-0.2,0-0.2-0.1-0.2-0.2c-0.2-1.2-0.4-2.3-0.6-3.5c0-0.2,0.1-0.3,0.2-0.3c0.1,0,0.3,0,0.4,0C21.4,5.3,21.8,7,21.5,8.1z M22.5,7.1
		c-0.1-1.2-0.6-2-1.7-2.5c-0.8-0.3-1.6-0.2-2.4,0C18,4.7,17.9,4.9,18,5.3c0.2,1.5,0.5,3.1,0.7,4.6c0,0.3,0.2,0.4,0.5,0.4
		c0.6,0,1.1-0.2,1.6-0.4c1.1-0.5,1.7-1.3,1.7-2.5C22.5,7.3,22.5,7.2,22.5,7.1z M21.5,8.1c-0.2,0.6-1.1,1.2-1.8,1.2
		c-0.2,0-0.2-0.1-0.2-0.2c-0.2-1.2-0.4-2.3-0.6-3.5c0-0.2,0.1-0.3,0.2-0.3c0.1,0,0.3,0,0.4,0C21.4,5.3,21.8,7,21.5,8.1z M18.1,10.2
		c0-0.3-0.2-0.4-0.5-0.4c-0.1,0-0.1,0-0.2,0c-0.7,0.1-1.3,0.2-2,0.3c-0.5,0.1-0.5,0.1-0.6-0.4c-0.2-1.3-0.4-2.6-0.6-3.9
		c0-0.3-0.2-0.5-0.5-0.5c-0.3,0-0.4,0.3-0.4,0.6c0.1,0.4,0.1,0.7,0.2,1.1c0.2,1.2,0.4,2.4,0.6,3.7c0.1,0.4,0.2,0.5,0.6,0.5
		c1-0.2,2-0.3,3-0.5C18,10.6,18.1,10.4,18.1,10.2z M12.5,7.8c-0.3-1.5-1.1-2.1-2.6-1.9c-1,0.1-1.8,1-1.8,2c0,0.7,0.2,1.4,0.3,2
		c0.1,0.5,0.2,0.9,0.5,1.3c0.6,0.7,1.6,0.9,2.6,0.5c0.8-0.3,1.3-1.1,1.3-2.1C12.8,9.1,12.7,8.4,12.5,7.8z M11.1,10.9
		c-0.7,0.2-1.3,0-1.6-0.6c-0.2-0.5-0.2-1-0.3-1.5c0-0.3-0.1-0.6-0.1-0.8c0-0.9,0.4-1.3,1.1-1.4c0.8-0.1,1.3,0.3,1.4,1.1
		c0.1,0.6,0.2,1.2,0.3,1.8C12,10.2,11.6,10.8,11.1,10.9z M6.3,9.1c-0.5-0.1-1,0.1-1.5,0C4.5,9.1,4.2,9,4.1,8.7
		C4,8.3,4.1,7.9,4.5,7.8c0.4-0.2,0.8-0.2,1.2-0.2C6,7.7,6.2,7.9,6.3,8.2c0.1,0.2,0.3,0.4,0.6,0.2c0.2-0.1,0.4-0.3,0.2-0.6
		C7.1,7.6,7,7.5,6.8,7.3C6,6.3,4.6,6.5,3.9,7.1c-1,0.7-0.9,2.1,0,2.7C4.3,10.1,4.8,10,5.3,10c0.2,0,0.5,0,0.7,0
		c0.5,0,0.8,0.4,0.7,0.9c-0.1,0.5-0.6,0.6-1,0.7c-0.6,0.1-1-0.1-1.3-0.5c-0.2-0.4-0.4-0.5-0.7-0.4c-0.3,0.1-0.3,0.4-0.1,0.8
		c0.3,0.6,0.8,0.9,1.5,1c0.9,0.1,1.7,0,2.3-0.9C7.8,10.9,7.7,9.4,6.3,9.1z"/>
	<path class="st0" d="M33.4,16.3c-0.3,0-0.6-0.3-0.4-0.6c0.3-0.6,0.6-1.2,1-1.7c0.1-0.2,0.4-0.2,0.6-0.1c0.2,0.1,0.3,0.3,0.2,0.6
		c-0.3,0.6-0.7,1.2-1,1.7C33.7,16.2,33.6,16.3,33.4,16.3z"/>
	<path class="st0" d="M36,18.9c-0.2,0-0.4-0.1-0.4-0.4c-0.1-0.2,0.1-0.4,0.2-0.5c0.4-0.2,0.7-0.4,1.1-0.6c0.2-0.1,0.4-0.2,0.6-0.3
		c0.2-0.1,0.4,0,0.5,0.2c0.1,0.2,0.2,0.4,0,0.5C37.5,18.2,36.8,18.5,36,18.9C36.1,18.9,36.1,18.9,36,18.9z"/>
	<path class="st0" d="M21.6,17.5c0-0.3,0.3-0.6,0.6-0.4c0.6,0.3,1.2,0.6,1.7,1c0.2,0.1,0.2,0.4,0.1,0.6c-0.1,0.2-0.3,0.3-0.5,0.2
		c-0.6-0.3-1.2-0.7-1.8-1C21.6,17.8,21.6,17.6,21.6,17.5z"/>
	<path class="st0" d="M26.3,16.3c-0.2,0-0.3-0.1-0.4-0.3c-0.3-0.5-0.6-1.1-0.9-1.6c-0.1-0.2-0.1-0.4,0.2-0.6
		c0.2-0.2,0.4-0.1,0.6,0.1c0.4,0.6,0.7,1.2,1,1.8C26.8,16,26.6,16.3,26.3,16.3z"/>
	<path class="st0" d="M30.3,13.9c0,0.3,0,0.6,0,0.9c0,0.3-0.1,0.4-0.4,0.5c-0.3,0-0.5-0.2-0.5-0.4c0-0.7,0-1.3,0-2
		c0-0.3,0.2-0.4,0.5-0.4c0.3,0,0.4,0.2,0.4,0.5C30.3,13.3,30.3,13.6,30.3,13.9z"/>
	<path class="st0" d="M35.1,38.6c-0.2,0.2-0.5,0.2-0.7-0.1c-0.4-0.4-0.8-0.8-1.2-1.2c-0.1-0.1-0.2-0.3-0.3-0.2
		c-0.1,0.1-0.1,0.2-0.1,0.4c0,1.1,0,2.1,0,3.2c0,0.5-0.1,0.7-0.4,0.7c-0.3,0-0.5-0.2-0.5-0.7c0-1.1,0-2.2,0-3.3c0-0.1,0-0.2,0-0.3
		c0,0-0.1,0-0.1-0.1c-0.4,0.4-0.9,0.9-1.3,1.3c-0.1,0.1-0.2,0.2-0.3,0.3c-0.2,0.1-0.4,0.1-0.6-0.1c-0.2-0.2-0.1-0.4,0-0.6
		c0.5-0.5,1.1-1.1,1.6-1.6c0.3-0.3,0.5-0.5,0.8-0.8c0.2-0.2,0.5-0.2,0.7,0c0.8,0.8,1.6,1.6,2.3,2.3C35.3,38.1,35.3,38.4,35.1,38.6z"
		/>
	<path class="st0" d="M17.5,37c0.1,0.3-0.1,0.6-0.4,0.6c-0.1,0-0.2,0-0.3,0H8.6c-0.3,0-0.5-0.1-0.5-0.4c0-0.3,0.2-0.5,0.5-0.5
		c1.4,0,2.8,0,4.2,0c1.4,0,2.7,0,4.1,0C17.2,36.7,17.4,36.8,17.5,37z"/>
	<path class="st0" d="M17.5,39.3c0,0.3-0.2,0.5-0.6,0.5c-1.4,0-2.7,0-4.1,0c-1.3,0-2.6,0-4,0c-0.1,0-0.2,0-0.4,0
		c-0.2-0.1-0.3-0.2-0.3-0.4c0-0.2,0.1-0.4,0.3-0.4c0.3-0.1,0.5,0,0.8,0c1-0.1,2,0,3,0c0.8,0,1.6,0,2.4,0c0.8,0,1.5-0.1,2.3,0
		C17.3,38.9,17.5,39,17.5,39.3z"/>
	<path class="st0" d="M19,34.5c-2.1,0-4.1,0-6.1,0s-4.1,0-6.1,0c-0.6,0-0.7,0.1-0.7,0.7c0,2,0,4,0,5.9c0,0.6,0.2,0.7,0.7,0.7
		c4.1,0,8.2,0,12.2,0c0.5,0,0.7-0.1,0.7-0.7c0-2,0-4,0-6C19.7,34.6,19.5,34.5,19,34.5z M18.4,41c-1.8,0-3.7,0-5.5,0
		c-1.8,0-3.7,0-5.5,0C7.1,41,7,40.9,7,40.6c0-1.6,0-3.2,0-4.8c0-0.3,0.1-0.4,0.3-0.4c3.7,0,7.4,0,11.1,0c0.3,0,0.3,0.1,0.3,0.3
		c0,1.6,0,3.2,0,4.9C18.8,40.9,18.7,41,18.4,41z"/>
	<path class="st0" d="M6.3,9.1c-0.5-0.1-1,0.1-1.5,0C4.5,9.1,4.2,9,4.1,8.7C4,8.3,4.1,7.9,4.5,7.8c0.4-0.2,0.8-0.2,1.2-0.2
		C6,7.7,6.2,7.9,6.3,8.2c0.1,0.2,0.3,0.4,0.6,0.2c0.2-0.1,0.4-0.3,0.2-0.6C7.1,7.6,7,7.5,6.8,7.3C6,6.3,4.6,6.5,3.9,7.1
		c-1,0.7-0.9,2.1,0,2.7C4.3,10.1,4.8,10,5.3,10c0.2,0,0.5,0,0.7,0c0.5,0,0.8,0.4,0.7,0.9c-0.1,0.5-0.6,0.6-1,0.7
		c-0.6,0.1-1-0.1-1.3-0.5c-0.2-0.4-0.4-0.5-0.7-0.4c-0.3,0.1-0.3,0.4-0.1,0.8c0.3,0.6,0.8,0.9,1.5,1c0.9,0.1,1.7,0,2.3-0.9
		C7.8,10.9,7.7,9.4,6.3,9.1z M12.5,7.8c-0.3-1.5-1.1-2.1-2.6-1.9c-1,0.1-1.8,1-1.8,2c0,0.7,0.2,1.4,0.3,2c0.1,0.5,0.2,0.9,0.5,1.3
		c0.6,0.7,1.6,0.9,2.6,0.5c0.8-0.3,1.3-1.1,1.3-2.1C12.8,9.1,12.7,8.4,12.5,7.8z M11.1,10.9c-0.7,0.2-1.3,0-1.6-0.6
		c-0.2-0.5-0.2-1-0.3-1.5c0-0.3-0.1-0.6-0.1-0.8c0-0.9,0.4-1.3,1.1-1.4c0.8-0.1,1.3,0.3,1.4,1.1c0.1,0.6,0.2,1.2,0.3,1.8
		C12,10.2,11.6,10.8,11.1,10.9z M18.1,10.2c0-0.3-0.2-0.4-0.5-0.4c-0.1,0-0.1,0-0.2,0c-0.7,0.1-1.3,0.2-2,0.3
		c-0.5,0.1-0.5,0.1-0.6-0.4c-0.2-1.3-0.4-2.6-0.6-3.9c0-0.3-0.2-0.5-0.5-0.5c-0.3,0-0.4,0.3-0.4,0.6c0.1,0.4,0.1,0.7,0.2,1.1
		c0.2,1.2,0.4,2.4,0.6,3.7c0.1,0.4,0.2,0.5,0.6,0.5c1-0.2,2-0.3,3-0.5C18,10.6,18.1,10.4,18.1,10.2z M22.5,7.1
		c-0.1-1.2-0.6-2-1.7-2.5c-0.8-0.3-1.6-0.2-2.4,0C18,4.7,17.9,4.9,18,5.3c0.2,1.5,0.5,3.1,0.7,4.6c0,0.3,0.2,0.4,0.5,0.4
		c0.6,0,1.1-0.2,1.6-0.4c1.1-0.5,1.7-1.3,1.7-2.5C22.5,7.3,22.5,7.2,22.5,7.1z M21.5,8.1c-0.2,0.6-1.1,1.2-1.8,1.2
		c-0.2,0-0.2-0.1-0.2-0.2c-0.2-1.2-0.4-2.3-0.6-3.5c0-0.2,0.1-0.3,0.2-0.3c0.1,0,0.3,0,0.4,0C21.4,5.3,21.8,7,21.5,8.1z"/>
	<path class="st0" d="M35.1,38.6c-0.2,0.2-0.5,0.2-0.7-0.1c-0.4-0.4-0.8-0.8-1.2-1.2c-0.1-0.1-0.2-0.3-0.3-0.2
		c-0.1,0.1-0.1,0.2-0.1,0.4c0,1.1,0,2.1,0,3.2c0,0.5-0.1,0.7-0.4,0.7c-0.3,0-0.5-0.2-0.5-0.7c0-1.1,0-2.2,0-3.3c0-0.1,0-0.2,0-0.3
		c0,0-0.1,0-0.1-0.1c-0.4,0.4-0.9,0.9-1.3,1.3c-0.1,0.1-0.2,0.2-0.3,0.3c-0.2,0.1-0.4,0.1-0.6-0.1c-0.2-0.2-0.1-0.4,0-0.6
		c0.5-0.5,1.1-1.1,1.6-1.6c0.3-0.3,0.5-0.5,0.8-0.8c0.2-0.2,0.5-0.2,0.7,0c0.8,0.8,1.6,1.6,2.3,2.3C35.3,38.1,35.3,38.4,35.1,38.6z"
		/>
	<path class="st0" d="M17.5,37c0.1,0.3-0.1,0.6-0.4,0.6c-0.1,0-0.2,0-0.3,0H8.6c-0.3,0-0.5-0.1-0.5-0.4c0-0.3,0.2-0.5,0.5-0.5
		c1.4,0,2.8,0,4.2,0c1.4,0,2.7,0,4.1,0C17.2,36.7,17.4,36.8,17.5,37z"/>
	<path class="st0" d="M17.5,39.3c0,0.3-0.2,0.5-0.6,0.5c-1.4,0-2.7,0-4.1,0c-1.3,0-2.6,0-4,0c-0.1,0-0.2,0-0.4,0
		c-0.2-0.1-0.3-0.2-0.3-0.4c0-0.2,0.1-0.4,0.3-0.4c0.3-0.1,0.5,0,0.8,0c1-0.1,2,0,3,0c0.8,0,1.6,0,2.4,0c0.8,0,1.5-0.1,2.3,0
		C17.3,38.9,17.5,39,17.5,39.3z"/>
	<path class="st0" d="M19,34.5c-2.1,0-4.1,0-6.1,0s-4.1,0-6.1,0c-0.6,0-0.7,0.1-0.7,0.7c0,2,0,4,0,5.9c0,0.6,0.2,0.7,0.7,0.7
		c4.1,0,8.2,0,12.2,0c0.5,0,0.7-0.1,0.7-0.7c0-2,0-4,0-6C19.7,34.6,19.5,34.5,19,34.5z M18.4,41c-1.8,0-3.7,0-5.5,0
		c-1.8,0-3.7,0-5.5,0C7.1,41,7,40.9,7,40.6c0-1.6,0-3.2,0-4.8c0-0.3,0.1-0.4,0.3-0.4c3.7,0,7.4,0,11.1,0c0.3,0,0.3,0.1,0.3,0.3
		c0,1.6,0,3.2,0,4.9C18.8,40.9,18.7,41,18.4,41z"/>
	<path class="st0" d="M12.5,7.8c-0.3-1.5-1.1-2.1-2.6-1.9c-1,0.1-1.8,1-1.8,2c0,0.7,0.2,1.4,0.3,2c0.1,0.5,0.2,0.9,0.5,1.3
		c0.6,0.7,1.6,0.9,2.6,0.5c0.8-0.3,1.3-1.1,1.3-2.1C12.8,9.1,12.7,8.4,12.5,7.8z M11.1,10.9c-0.7,0.2-1.3,0-1.6-0.6
		c-0.2-0.5-0.2-1-0.3-1.5c0-0.3-0.1-0.6-0.1-0.8c0-0.9,0.4-1.3,1.1-1.4c0.8-0.1,1.3,0.3,1.4,1.1c0.1,0.6,0.2,1.2,0.3,1.8
		C12,10.2,11.6,10.8,11.1,10.9z"/>
	<path class="st0" d="M7.3,11.6c-0.5,0.8-1.4,0.9-2.3,0.9c-0.7-0.1-1.2-0.4-1.5-1c-0.2-0.4-0.1-0.7,0.1-0.8c0.3-0.1,0.5,0,0.7,0.4
		c0.2,0.4,0.7,0.6,1.3,0.5c0.4-0.1,0.9-0.2,1-0.7C6.8,10.4,6.5,10,6,10c-0.2,0-0.5,0-0.7,0c-0.5,0-1,0.1-1.4-0.2c-1-0.6-1-2,0-2.7
		C4.6,6.5,6,6.3,6.8,7.3C7,7.5,7.1,7.6,7.1,7.9c0.1,0.3,0,0.5-0.2,0.6c-0.3,0.1-0.5,0-0.6-0.2C6.2,7.9,6,7.7,5.7,7.6
		c-0.4-0.1-0.8,0-1.2,0.2C4.1,7.9,4,8.3,4.1,8.7C4.2,9,4.5,9.1,4.8,9.1c0.5,0,1-0.1,1.5,0C7.7,9.4,7.8,10.9,7.3,11.6z"/>
	<path class="st0" d="M22.5,7.1c-0.1-1.2-0.6-2-1.7-2.5c-0.8-0.3-1.6-0.2-2.4,0C18,4.7,17.9,4.9,18,5.3c0.2,1.5,0.5,3.1,0.7,4.6
		c0,0.3,0.2,0.4,0.5,0.4c0.6,0,1.1-0.2,1.6-0.4c1.1-0.5,1.7-1.3,1.7-2.5C22.5,7.3,22.5,7.2,22.5,7.1z M21.5,8.1
		c-0.2,0.6-1.1,1.2-1.8,1.2c-0.2,0-0.2-0.1-0.2-0.2c-0.2-1.2-0.4-2.3-0.6-3.5c0-0.2,0.1-0.3,0.2-0.3c0.1,0,0.3,0,0.4,0
		C21.4,5.3,21.8,7,21.5,8.1z"/>
	<path class="st0" d="M17.7,10.7c-1,0.2-2,0.3-3,0.5c-0.4,0-0.6-0.1-0.6-0.5c-0.2-1.2-0.4-2.4-0.6-3.7c-0.1-0.4-0.1-0.7-0.2-1.1
		c0-0.3,0.1-0.6,0.4-0.6c0.3,0,0.5,0.2,0.5,0.5c0.2,1.3,0.4,2.6,0.6,3.9c0.1,0.5,0.1,0.5,0.6,0.4c0.7-0.1,1.3-0.2,2-0.3
		c0.1,0,0.1,0,0.2,0c0.3,0,0.5,0.1,0.5,0.4C18.1,10.4,18,10.6,17.7,10.7z"/>
	<path class="st0" d="M8.1,37.2c0-0.3,0.2-0.5,0.5-0.5c1.4,0,2.8,0,4.2,0c1.4,0,2.7,0,4.1,0c0.2,0,0.4,0.1,0.5,0.3
		c0.1,0.3-0.1,0.6-0.4,0.6c-0.1,0-0.2,0-0.3,0H8.6C8.3,37.6,8.1,37.5,8.1,37.2z"/>
	<path class="st0" d="M17.5,39.3c0,0.3-0.2,0.5-0.6,0.5c-1.4,0-2.7,0-4.1,0c-1.3,0-2.6,0-4,0c-0.1,0-0.2,0-0.4,0
		c-0.2-0.1-0.3-0.2-0.3-0.4c0-0.2,0.1-0.4,0.3-0.4c0.3-0.1,0.5,0,0.8,0c1-0.1,2,0,3,0c0.8,0,1.6,0,2.4,0c0.8,0,1.5-0.1,2.3,0
		C17.3,38.9,17.5,39,17.5,39.3z"/>
	<path class="st0" d="M17.5,39.3c0,0.3-0.2,0.5-0.6,0.5c-1.4,0-2.7,0-4.1,0c-1.3,0-2.6,0-4,0c-0.1,0-0.2,0-0.4,0
		c-0.2-0.1-0.3-0.2-0.3-0.4c0-0.2,0.1-0.4,0.3-0.4c0.3-0.1,0.5,0,0.8,0c1-0.1,2,0,3,0c0.8,0,1.6,0,2.4,0c0.8,0,1.5-0.1,2.3,0
		C17.3,38.9,17.5,39,17.5,39.3z"/>
	<path class="st0" d="M17.1,37.6c-0.1,0-0.2,0-0.3,0H8.6c-0.3,0-0.5-0.1-0.5-0.4c0-0.3,0.2-0.5,0.5-0.5c1.4,0,2.8,0,4.2,0
		c1.4,0,2.7,0,4.1,0c0.2,0,0.4,0.1,0.5,0.3C17.6,37.3,17.4,37.6,17.1,37.6z"/>
</g>
</svg>
