<?xml version="1.0"?>
<svg xmlns="http://www.w3.org/2000/svg" id="Layer_1" enable-background="new 0 0 512 512" height="50px" viewBox="0 0 512 512" width="50px"><g><g><path d="m406 448.881c-4.143 0-7.5 3.358-7.5 7.5v17c0 13.023-10.595 23.619-23.618 23.619h-237.763c-13.023 0-23.619-10.595-23.619-23.619v-382.196c0-4.142-3.358-7.5-7.5-7.5s-7.5 3.358-7.5 7.5v382.197c0 21.294 17.324 38.619 38.619 38.619h237.763c21.294 0 38.618-17.324 38.618-38.619v-17c0-4.143-3.357-7.501-7.5-7.501z" data-original="#000000" class="active-path" data-old_color="#000000" fill="#FFFFFF"/><path d="m374.882 0h-237.763c-21.295 0-38.619 17.324-38.619 38.619v18.011c0 4.142 3.358 7.5 7.5 7.5s7.5-3.358 7.5-7.5v-18.011c0-13.024 10.595-23.619 23.619-23.619h32.748l8.527 32.365c.868 3.294 3.846 5.589 7.252 5.589h140.708c3.406 0 6.385-2.295 7.253-5.589l8.528-32.365h32.747c13.023 0 23.618 10.595 23.618 23.619v383.197c0 4.142 3.357 7.5 7.5 7.5s7.5-3.358 7.5-7.5v-383.197c0-21.295-17.324-38.619-38.618-38.619zm-54.308 37.954h-129.148l-6.048-22.954h141.244z" data-original="#000000" class="active-path" data-old_color="#000000" fill="#FFFFFF"/><path d="m209.632 462.269c-4.142 0-7.5 3.358-7.5 7.5s3.358 7.5 7.5 7.5h92.736c4.143 0 7.5-3.358 7.5-7.5s-3.357-7.5-7.5-7.5z" data-original="#000000" class="active-path" data-old_color="#000000" fill="#FFFFFF"/><path d="m368.229 254.689v-76.265c0-4.142-3.357-7.5-7.5-7.5-26.62 0-51.536-6.231-70.16-17.545-17.455-10.604-27.068-24.306-27.068-38.58 0-4.142-3.357-7.5-7.5-7.5s-7.5 3.358-7.5 7.5c0 14.274-9.613 27.975-27.068 38.58-18.624 11.314-43.54 17.545-70.16 17.545-4.142 0-7.5 3.358-7.5 7.5v76.265c0 69.296 44.143 130.654 109.845 152.682.773.259 1.578.389 2.384.389s1.61-.13 2.384-.389c65.699-22.028 109.843-83.386 109.843-152.682zm-112.229 137.638c-58.26-20.647-97.229-75.64-97.229-137.638v-68.918c26.522-1.089 51.305-7.942 70.448-19.572 11.943-7.256 20.988-15.921 26.78-25.463 5.792 9.542 14.837 18.207 26.78 25.463 19.144 11.63 43.926 18.483 70.448 19.572v68.918c.002 61.998-38.967 116.99-97.227 137.638z" data-original="#000000" class="active-path" data-old_color="#000000" fill="#FFFFFF"/><path d="m293.939 233.564-54.962 54.962-20.917-20.918c-2.929-2.929-7.678-2.929-10.607 0s-2.929 7.677 0 10.606l26.22 26.222c1.407 1.407 3.314 2.197 5.304 2.197s3.896-.79 5.304-2.197l60.266-60.266c2.929-2.929 2.929-7.678 0-10.606-2.93-2.929-7.678-2.929-10.608 0z" data-original="#000000" class="active-path" data-old_color="#000000" fill="#FFFFFF"/></g></g> </svg>
